<mxfile host="app.diagrams.net" agent="Mozilla/5.0 (Windows NT 10.0; Win64; x64; rv:138.0) Gecko/20100101 Firefox/138.0" version="26.2.12">
  <diagram id="C5RBs43oDa-KdzZeNtuy" name="Page-1">
    <mxGraphModel dx="2785" dy="1431" grid="0" gridSize="10" guides="1" tooltips="1" connect="1" arrows="1" fold="1" page="1" pageScale="1" pageWidth="827" pageHeight="1169" background="light-dark(#FFFFFF,#FFFFFF)" math="0" shadow="0">
      <root>
        <mxCell id="WIyWlLk6GJQsqaUBKTNV-0" />
        <mxCell id="WIyWlLk6GJQsqaUBKTNV-1" parent="WIyWlLk6GJQsqaUBKTNV-0" />
        <mxCell id="jimjA2uH7LkE7ERj5Uc3-0" value="Начало" style="ellipse;whiteSpace=wrap;html=1;fillColor=#0050ef;fontColor=#ffffff;strokeColor=#001DBC;" vertex="1" parent="WIyWlLk6GJQsqaUBKTNV-1">
          <mxGeometry x="355" y="63" width="120" height="80" as="geometry" />
        </mxCell>
        <mxCell id="jimjA2uH7LkE7ERj5Uc3-1" value="" style="endArrow=classic;html=1;rounded=0;exitX=0.5;exitY=1;exitDx=0;exitDy=0;strokeColor=#001DBC;fillColor=#0050ef;" edge="1" parent="WIyWlLk6GJQsqaUBKTNV-1">
          <mxGeometry width="50" height="50" relative="1" as="geometry">
            <mxPoint x="414.5" y="143" as="sourcePoint" />
            <mxPoint x="414.5" y="202" as="targetPoint" />
          </mxGeometry>
        </mxCell>
        <mxCell id="jimjA2uH7LkE7ERj5Uc3-31" value="" style="edgeStyle=orthogonalEdgeStyle;rounded=0;orthogonalLoop=1;jettySize=auto;html=1;" edge="1" parent="WIyWlLk6GJQsqaUBKTNV-1" source="jimjA2uH7LkE7ERj5Uc3-2" target="jimjA2uH7LkE7ERj5Uc3-30">
          <mxGeometry relative="1" as="geometry" />
        </mxCell>
        <mxCell id="jimjA2uH7LkE7ERj5Uc3-2" value="count = 0" style="rounded=0;whiteSpace=wrap;html=1;fillColor=#0050ef;fontColor=#ffffff;strokeColor=#001DBC;" vertex="1" parent="WIyWlLk6GJQsqaUBKTNV-1">
          <mxGeometry x="355" y="200" width="120" height="60" as="geometry" />
        </mxCell>
        <mxCell id="jimjA2uH7LkE7ERj5Uc3-3" value="" style="endArrow=classic;html=1;rounded=0;exitX=0.5;exitY=1;exitDx=0;exitDy=0;strokeColor=#001DBC;fillColor=#0050ef;" edge="1" parent="WIyWlLk6GJQsqaUBKTNV-1">
          <mxGeometry width="50" height="50" relative="1" as="geometry">
            <mxPoint x="414.5" y="260" as="sourcePoint" />
            <mxPoint x="414.5" y="319" as="targetPoint" />
          </mxGeometry>
        </mxCell>
        <mxCell id="jimjA2uH7LkE7ERj5Uc3-4" value="&lt;div&gt;num = 10&lt;/div&gt;" style="rounded=0;whiteSpace=wrap;html=1;fillColor=#0050ef;fontColor=#ffffff;strokeColor=#001DBC;" vertex="1" parent="WIyWlLk6GJQsqaUBKTNV-1">
          <mxGeometry x="355" y="317" width="120" height="60" as="geometry" />
        </mxCell>
        <mxCell id="jimjA2uH7LkE7ERj5Uc3-6" value="" style="endArrow=classic;html=1;rounded=0;exitX=0.5;exitY=1;exitDx=0;exitDy=0;strokeColor=#001DBC;fillColor=#0050ef;" edge="1" parent="WIyWlLk6GJQsqaUBKTNV-1">
          <mxGeometry width="50" height="50" relative="1" as="geometry">
            <mxPoint x="414.5" y="377" as="sourcePoint" />
            <mxPoint x="414.5" y="436" as="targetPoint" />
          </mxGeometry>
        </mxCell>
        <mxCell id="jimjA2uH7LkE7ERj5Uc3-7" value="num =&amp;lt; 99?" style="rhombus;whiteSpace=wrap;html=1;fillColor=#0050ef;fontColor=#ffffff;strokeColor=#001DBC;" vertex="1" parent="WIyWlLk6GJQsqaUBKTNV-1">
          <mxGeometry x="351" y="434" width="128" height="80" as="geometry" />
        </mxCell>
        <mxCell id="jimjA2uH7LkE7ERj5Uc3-8" value="" style="endArrow=classic;html=1;rounded=0;exitX=0.5;exitY=1;exitDx=0;exitDy=0;strokeColor=#001DBC;fillColor=#0050ef;" edge="1" parent="WIyWlLk6GJQsqaUBKTNV-1">
          <mxGeometry width="50" height="50" relative="1" as="geometry">
            <mxPoint x="479" y="474" as="sourcePoint" />
            <mxPoint x="526" y="533" as="targetPoint" />
          </mxGeometry>
        </mxCell>
        <mxCell id="jimjA2uH7LkE7ERj5Uc3-9" value="" style="endArrow=classic;html=1;rounded=0;exitX=0.5;exitY=1;exitDx=0;exitDy=0;strokeColor=#001DBC;fillColor=#0050ef;" edge="1" parent="WIyWlLk6GJQsqaUBKTNV-1">
          <mxGeometry width="50" height="50" relative="1" as="geometry">
            <mxPoint x="352" y="474" as="sourcePoint" />
            <mxPoint x="306" y="533" as="targetPoint" />
          </mxGeometry>
        </mxCell>
        <mxCell id="jimjA2uH7LkE7ERj5Uc3-10" value="Вывод count" style="shape=parallelogram;perimeter=parallelogramPerimeter;whiteSpace=wrap;html=1;fixedSize=1;fillColor=#0050ef;fontColor=#ffffff;strokeColor=#001DBC;" vertex="1" parent="WIyWlLk6GJQsqaUBKTNV-1">
          <mxGeometry x="464" y="533" width="120" height="60" as="geometry" />
        </mxCell>
        <mxCell id="jimjA2uH7LkE7ERj5Uc3-13" value="&lt;div&gt;num % 2 == 0&lt;/div&gt;&lt;div&gt;and&lt;/div&gt;&lt;div&gt;num % 5 == 0&lt;/div&gt;" style="rhombus;whiteSpace=wrap;html=1;fillColor=#0050ef;fontColor=#ffffff;strokeColor=#001DBC;" vertex="1" parent="WIyWlLk6GJQsqaUBKTNV-1">
          <mxGeometry x="243" y="533" width="128" height="80" as="geometry" />
        </mxCell>
        <mxCell id="jimjA2uH7LkE7ERj5Uc3-14" value="" style="endArrow=classic;html=1;rounded=0;exitX=0.5;exitY=1;exitDx=0;exitDy=0;strokeColor=#001DBC;fillColor=#0050ef;" edge="1" parent="WIyWlLk6GJQsqaUBKTNV-1">
          <mxGeometry width="50" height="50" relative="1" as="geometry">
            <mxPoint x="523.5" y="589" as="sourcePoint" />
            <mxPoint x="523.5" y="648" as="targetPoint" />
          </mxGeometry>
        </mxCell>
        <mxCell id="jimjA2uH7LkE7ERj5Uc3-15" value="Конец" style="ellipse;whiteSpace=wrap;html=1;fillColor=#0050ef;fontColor=#ffffff;strokeColor=#001DBC;" vertex="1" parent="WIyWlLk6GJQsqaUBKTNV-1">
          <mxGeometry x="464" y="647" width="120" height="80" as="geometry" />
        </mxCell>
        <mxCell id="jimjA2uH7LkE7ERj5Uc3-18" value="" style="endArrow=classic;html=1;rounded=0;exitX=0.5;exitY=1;exitDx=0;exitDy=0;strokeColor=#001DBC;fillColor=#0050ef;" edge="1" parent="WIyWlLk6GJQsqaUBKTNV-1">
          <mxGeometry width="50" height="50" relative="1" as="geometry">
            <mxPoint x="333" y="593" as="sourcePoint" />
            <mxPoint x="380" y="652" as="targetPoint" />
          </mxGeometry>
        </mxCell>
        <mxCell id="jimjA2uH7LkE7ERj5Uc3-23" style="edgeStyle=orthogonalEdgeStyle;rounded=0;orthogonalLoop=1;jettySize=auto;html=1;exitX=0.5;exitY=1;exitDx=0;exitDy=0;fillColor=#0050ef;strokeColor=#001DBC;" edge="1" parent="WIyWlLk6GJQsqaUBKTNV-1" source="jimjA2uH7LkE7ERj5Uc3-19">
          <mxGeometry relative="1" as="geometry">
            <mxPoint x="414" y="403" as="targetPoint" />
            <Array as="points">
              <mxPoint x="380" y="889" />
              <mxPoint x="30" y="889" />
              <mxPoint x="30" y="403" />
            </Array>
          </mxGeometry>
        </mxCell>
        <mxCell id="jimjA2uH7LkE7ERj5Uc3-19" value="num += 1&amp;nbsp;" style="rounded=0;whiteSpace=wrap;html=1;fillColor=#0050ef;fontColor=#ffffff;strokeColor=#001DBC;" vertex="1" parent="WIyWlLk6GJQsqaUBKTNV-1">
          <mxGeometry x="320" y="652" width="120" height="60" as="geometry" />
        </mxCell>
        <mxCell id="jimjA2uH7LkE7ERj5Uc3-24" value="" style="endArrow=classic;html=1;rounded=0;exitX=0.5;exitY=1;exitDx=0;exitDy=0;strokeColor=#001DBC;fillColor=#0050ef;" edge="1" parent="WIyWlLk6GJQsqaUBKTNV-1">
          <mxGeometry width="50" height="50" relative="1" as="geometry">
            <mxPoint x="272" y="593" as="sourcePoint" />
            <mxPoint x="226" y="652" as="targetPoint" />
          </mxGeometry>
        </mxCell>
        <mxCell id="jimjA2uH7LkE7ERj5Uc3-26" value="num += 1&amp;nbsp;" style="rounded=0;whiteSpace=wrap;html=1;fillColor=#0050ef;fontColor=#ffffff;strokeColor=#001DBC;" vertex="1" parent="WIyWlLk6GJQsqaUBKTNV-1">
          <mxGeometry x="176" y="652" width="120" height="60" as="geometry" />
        </mxCell>
        <mxCell id="jimjA2uH7LkE7ERj5Uc3-30" value="" style="whiteSpace=wrap;html=1;fillColor=#0050ef;strokeColor=#001DBC;fontColor=#ffffff;rounded=0;" vertex="1" parent="WIyWlLk6GJQsqaUBKTNV-1">
          <mxGeometry x="555" y="200" width="120" height="60" as="geometry" />
        </mxCell>
        <mxCell id="jimjA2uH7LkE7ERj5Uc3-36" value="" style="edgeStyle=orthogonalEdgeStyle;rounded=0;orthogonalLoop=1;jettySize=auto;html=1;fillColor=#0050ef;strokeColor=#001DBC;" edge="1" parent="WIyWlLk6GJQsqaUBKTNV-1" target="jimjA2uH7LkE7ERj5Uc3-35">
          <mxGeometry relative="1" as="geometry">
            <mxPoint x="1359" y="187" as="sourcePoint" />
          </mxGeometry>
        </mxCell>
        <mxCell id="jimjA2uH7LkE7ERj5Uc3-38" value="" style="edgeStyle=orthogonalEdgeStyle;rounded=0;orthogonalLoop=1;jettySize=auto;html=1;fillColor=#0050ef;strokeColor=#001DBC;" edge="1" parent="WIyWlLk6GJQsqaUBKTNV-1" source="jimjA2uH7LkE7ERj5Uc3-35" target="jimjA2uH7LkE7ERj5Uc3-37">
          <mxGeometry relative="1" as="geometry" />
        </mxCell>
        <mxCell id="jimjA2uH7LkE7ERj5Uc3-35" value="count = 0" style="whiteSpace=wrap;html=1;fillColor=#0050ef;strokeColor=#001DBC;fontColor=#ffffff;" vertex="1" parent="WIyWlLk6GJQsqaUBKTNV-1">
          <mxGeometry x="1299" y="277" width="120" height="60" as="geometry" />
        </mxCell>
        <mxCell id="jimjA2uH7LkE7ERj5Uc3-40" value="" style="edgeStyle=orthogonalEdgeStyle;rounded=0;orthogonalLoop=1;jettySize=auto;html=1;fillColor=#0050ef;strokeColor=#001DBC;" edge="1" parent="WIyWlLk6GJQsqaUBKTNV-1" source="jimjA2uH7LkE7ERj5Uc3-37" target="jimjA2uH7LkE7ERj5Uc3-39">
          <mxGeometry relative="1" as="geometry" />
        </mxCell>
        <mxCell id="jimjA2uH7LkE7ERj5Uc3-37" value="num = 10" style="whiteSpace=wrap;html=1;fillColor=#0050ef;strokeColor=#001DBC;fontColor=#ffffff;" vertex="1" parent="WIyWlLk6GJQsqaUBKTNV-1">
          <mxGeometry x="1299" y="417" width="120" height="60" as="geometry" />
        </mxCell>
        <mxCell id="jimjA2uH7LkE7ERj5Uc3-42" value="" style="edgeStyle=orthogonalEdgeStyle;rounded=0;orthogonalLoop=1;jettySize=auto;html=1;fillColor=#0050ef;strokeColor=#001DBC;" edge="1" parent="WIyWlLk6GJQsqaUBKTNV-1" source="jimjA2uH7LkE7ERj5Uc3-39" target="jimjA2uH7LkE7ERj5Uc3-41">
          <mxGeometry relative="1" as="geometry" />
        </mxCell>
        <mxCell id="jimjA2uH7LkE7ERj5Uc3-48" value="" style="edgeStyle=orthogonalEdgeStyle;rounded=0;orthogonalLoop=1;jettySize=auto;html=1;fillColor=#0050ef;strokeColor=#001DBC;" edge="1" parent="WIyWlLk6GJQsqaUBKTNV-1" source="jimjA2uH7LkE7ERj5Uc3-39" target="jimjA2uH7LkE7ERj5Uc3-47">
          <mxGeometry relative="1" as="geometry" />
        </mxCell>
        <mxCell id="jimjA2uH7LkE7ERj5Uc3-39" value="num =&amp;lt; 99?" style="rhombus;whiteSpace=wrap;html=1;fillColor=#0050ef;strokeColor=#001DBC;fontColor=#ffffff;" vertex="1" parent="WIyWlLk6GJQsqaUBKTNV-1">
          <mxGeometry x="1290" y="547" width="138" height="80" as="geometry" />
        </mxCell>
        <mxCell id="jimjA2uH7LkE7ERj5Uc3-44" value="" style="edgeStyle=orthogonalEdgeStyle;rounded=0;orthogonalLoop=1;jettySize=auto;html=1;fillColor=#0050ef;strokeColor=#001DBC;" edge="1" parent="WIyWlLk6GJQsqaUBKTNV-1" source="jimjA2uH7LkE7ERj5Uc3-41" target="jimjA2uH7LkE7ERj5Uc3-43">
          <mxGeometry relative="1" as="geometry" />
        </mxCell>
        <mxCell id="jimjA2uH7LkE7ERj5Uc3-41" value="Вывод count" style="shape=parallelogram;perimeter=parallelogramPerimeter;whiteSpace=wrap;html=1;fixedSize=1;fillColor=#0050ef;strokeColor=#001DBC;fontColor=#ffffff;" vertex="1" parent="WIyWlLk6GJQsqaUBKTNV-1">
          <mxGeometry x="1517" y="557" width="120" height="60" as="geometry" />
        </mxCell>
        <mxCell id="jimjA2uH7LkE7ERj5Uc3-43" value="Конец" style="rounded=1;whiteSpace=wrap;html=1;fillColor=#0050ef;strokeColor=#001DBC;fontColor=#ffffff;arcSize=50;" vertex="1" parent="WIyWlLk6GJQsqaUBKTNV-1">
          <mxGeometry x="1517" y="697" width="120" height="60" as="geometry" />
        </mxCell>
        <mxCell id="jimjA2uH7LkE7ERj5Uc3-46" value="Начало" style="rounded=1;whiteSpace=wrap;html=1;fillColor=#0050ef;strokeColor=#001DBC;fontColor=#ffffff;arcSize=50;" vertex="1" parent="WIyWlLk6GJQsqaUBKTNV-1">
          <mxGeometry x="1299" y="137" width="120" height="60" as="geometry" />
        </mxCell>
        <mxCell id="jimjA2uH7LkE7ERj5Uc3-67" value="" style="edgeStyle=orthogonalEdgeStyle;rounded=0;orthogonalLoop=1;jettySize=auto;html=1;fillColor=#0050ef;strokeColor=#001DBC;" edge="1" parent="WIyWlLk6GJQsqaUBKTNV-1" source="jimjA2uH7LkE7ERj5Uc3-47" target="jimjA2uH7LkE7ERj5Uc3-66">
          <mxGeometry relative="1" as="geometry" />
        </mxCell>
        <mxCell id="jimjA2uH7LkE7ERj5Uc3-71" style="edgeStyle=orthogonalEdgeStyle;rounded=0;orthogonalLoop=1;jettySize=auto;html=1;exitX=0.5;exitY=1;exitDx=0;exitDy=0;entryX=0.5;entryY=0;entryDx=0;entryDy=0;fillColor=#0050ef;strokeColor=#001DBC;" edge="1" parent="WIyWlLk6GJQsqaUBKTNV-1" source="jimjA2uH7LkE7ERj5Uc3-47" target="jimjA2uH7LkE7ERj5Uc3-51">
          <mxGeometry relative="1" as="geometry" />
        </mxCell>
        <mxCell id="jimjA2uH7LkE7ERj5Uc3-47" value="&lt;div&gt;num % 2 == 0&lt;/div&gt;&lt;div&gt;and&lt;/div&gt;&lt;div&gt;num % 5 == 0&lt;/div&gt;" style="rhombus;whiteSpace=wrap;html=1;fillColor=#0050ef;strokeColor=#001DBC;fontColor=#ffffff;" vertex="1" parent="WIyWlLk6GJQsqaUBKTNV-1">
          <mxGeometry x="1072" y="547" width="138" height="80" as="geometry" />
        </mxCell>
        <mxCell id="jimjA2uH7LkE7ERj5Uc3-56" style="edgeStyle=orthogonalEdgeStyle;rounded=0;orthogonalLoop=1;jettySize=auto;html=1;exitX=0.5;exitY=1;exitDx=0;exitDy=0;entryX=0;entryY=0.5;entryDx=0;entryDy=0;" edge="1" parent="WIyWlLk6GJQsqaUBKTNV-1" source="jimjA2uH7LkE7ERj5Uc3-51" target="jimjA2uH7LkE7ERj5Uc3-37">
          <mxGeometry relative="1" as="geometry">
            <Array as="points">
              <mxPoint x="1266" y="800" />
              <mxPoint x="890" y="800" />
              <mxPoint x="890" y="450" />
            </Array>
          </mxGeometry>
        </mxCell>
        <mxCell id="jimjA2uH7LkE7ERj5Uc3-51" value="num += 1" style="whiteSpace=wrap;html=1;fillColor=#0050ef;strokeColor=#001DBC;fontColor=#ffffff;" vertex="1" parent="WIyWlLk6GJQsqaUBKTNV-1">
          <mxGeometry x="1081" y="703" width="120" height="60" as="geometry" />
        </mxCell>
        <mxCell id="jimjA2uH7LkE7ERj5Uc3-53" value="" style="curved=1;endArrow=classic;html=1;rounded=0;" edge="1" parent="WIyWlLk6GJQsqaUBKTNV-1">
          <mxGeometry width="50" height="50" relative="1" as="geometry">
            <mxPoint x="1023" y="536" as="sourcePoint" />
            <mxPoint x="1073" y="486" as="targetPoint" />
            <Array as="points">
              <mxPoint x="1073" y="536" />
              <mxPoint x="1023" y="486" />
            </Array>
          </mxGeometry>
        </mxCell>
        <mxCell id="jimjA2uH7LkE7ERj5Uc3-55" value="" style="curved=1;endArrow=classic;html=1;rounded=0;" edge="1" parent="WIyWlLk6GJQsqaUBKTNV-1">
          <mxGeometry width="50" height="50" relative="1" as="geometry">
            <mxPoint x="1023" y="536" as="sourcePoint" />
            <mxPoint x="1073" y="486" as="targetPoint" />
            <Array as="points">
              <mxPoint x="1073" y="536" />
              <mxPoint x="1023" y="486" />
            </Array>
          </mxGeometry>
        </mxCell>
        <mxCell id="jimjA2uH7LkE7ERj5Uc3-63" value="ДА" style="text;html=1;align=center;verticalAlign=middle;resizable=0;points=[];autosize=1;fillColor=none;fontColor=#ffffff;strokeColor=none;" vertex="1" parent="WIyWlLk6GJQsqaUBKTNV-1">
          <mxGeometry x="1236" y="550" width="34" height="26" as="geometry" />
        </mxCell>
        <mxCell id="jimjA2uH7LkE7ERj5Uc3-65" value="НЕТ" style="text;html=1;align=center;verticalAlign=middle;resizable=0;points=[];autosize=1;fillColor=none;fontColor=#ffffff;strokeColor=none;" vertex="1" parent="WIyWlLk6GJQsqaUBKTNV-1">
          <mxGeometry x="1448" y="552" width="42" height="26" as="geometry" />
        </mxCell>
        <mxCell id="jimjA2uH7LkE7ERj5Uc3-69" value="" style="edgeStyle=orthogonalEdgeStyle;rounded=0;orthogonalLoop=1;jettySize=auto;html=1;fillColor=#0050ef;strokeColor=#001DBC;" edge="1" parent="WIyWlLk6GJQsqaUBKTNV-1" source="jimjA2uH7LkE7ERj5Uc3-66" target="jimjA2uH7LkE7ERj5Uc3-68">
          <mxGeometry relative="1" as="geometry" />
        </mxCell>
        <mxCell id="jimjA2uH7LkE7ERj5Uc3-66" value="count += 1" style="whiteSpace=wrap;html=1;fillColor=#0050ef;strokeColor=#001DBC;fontColor=#ffffff;" vertex="1" parent="WIyWlLk6GJQsqaUBKTNV-1">
          <mxGeometry x="863" y="557" width="120" height="60" as="geometry" />
        </mxCell>
        <mxCell id="jimjA2uH7LkE7ERj5Uc3-70" style="edgeStyle=orthogonalEdgeStyle;rounded=0;orthogonalLoop=1;jettySize=auto;html=1;exitX=0;exitY=0.5;exitDx=0;exitDy=0;fillColor=#0050ef;strokeColor=#001DBC;" edge="1" parent="WIyWlLk6GJQsqaUBKTNV-1" source="jimjA2uH7LkE7ERj5Uc3-68">
          <mxGeometry relative="1" as="geometry">
            <mxPoint x="1360" y="534" as="targetPoint" />
            <mxPoint x="855.99" y="726.99" as="sourcePoint" />
            <Array as="points">
              <mxPoint x="836" y="727" />
              <mxPoint x="836" y="534" />
            </Array>
          </mxGeometry>
        </mxCell>
        <mxCell id="jimjA2uH7LkE7ERj5Uc3-68" value="num += 1" style="whiteSpace=wrap;html=1;fillColor=#0050ef;strokeColor=#001DBC;fontColor=#ffffff;" vertex="1" parent="WIyWlLk6GJQsqaUBKTNV-1">
          <mxGeometry x="863" y="697" width="120" height="60" as="geometry" />
        </mxCell>
      </root>
    </mxGraphModel>
  </diagram>
</mxfile>
